<mxfile host="app.diagrams.net" agent="Mozilla/5.0 (Windows NT 10.0; Win64; x64) AppleWebKit/537.36 (KHTML, like Gecko) Chrome/130.0.0.0 Safari/537.36 OPR/115.0.0.0" version="26.0.8">
  <diagram name="Page-1" id="b94_PPDYB-kN86rGqZX9">
    <mxGraphModel>
      <root>
        <mxCell id="0" />
        <mxCell id="1" parent="0" />
        <mxCell id="2" value="Start" style="rounded=1;arcSize=20;strokeWidth=2" vertex="1" parent="1">
          <mxGeometry x="146" y="8" width="65" height="54" as="geometry" />
        </mxCell>
        <mxCell id="3" value="Collect User Details" style="rounded=1;arcSize=20;strokeWidth=2" vertex="1" parent="1">
          <mxGeometry x="93" y="112" width="171" height="54" as="geometry" />
        </mxCell>
        <mxCell id="4" value="Verify User Information" style="rounded=1;arcSize=20;strokeWidth=2" vertex="1" parent="1">
          <mxGeometry x="8" y="216" width="197" height="54" as="geometry" />
        </mxCell>
        <mxCell id="5" value="User Information Valid?" style="rhombus;strokeWidth=2;whiteSpace=wrap;" vertex="1" parent="1">
          <mxGeometry x="69" y="320" width="220" height="220" as="geometry" />
        </mxCell>
        <mxCell id="6" value="Create User Account" style="rounded=1;arcSize=20;strokeWidth=2" vertex="1" parent="1">
          <mxGeometry x="91" y="613" width="176" height="54" as="geometry" />
        </mxCell>
        <mxCell id="7" value="Send Verification Email" style="rounded=1;arcSize=20;strokeWidth=2" vertex="1" parent="1">
          <mxGeometry x="81" y="717" width="196" height="54" as="geometry" />
        </mxCell>
        <mxCell id="8" value="Email Verified?" style="rhombus;strokeWidth=2;whiteSpace=wrap;" vertex="1" parent="1">
          <mxGeometry x="99" y="843" width="160" height="160" as="geometry" />
        </mxCell>
        <mxCell id="9" value="Activate User Account" style="rounded=1;arcSize=20;strokeWidth=2" vertex="1" parent="1">
          <mxGeometry x="85" y="1076" width="188" height="54" as="geometry" />
        </mxCell>
        <mxCell id="10" value="Account Activated?" style="rhombus;strokeWidth=2;whiteSpace=wrap;" vertex="1" parent="1">
          <mxGeometry x="84" y="1203" width="190" height="190" as="geometry" />
        </mxCell>
        <mxCell id="11" value="Create User Profile" style="rhombus;strokeWidth=2;whiteSpace=wrap;" vertex="1" parent="1">
          <mxGeometry x="84" y="1466" width="190" height="190" as="geometry" />
        </mxCell>
        <mxCell id="12" value="User Profile Created?" style="rhombus;strokeWidth=2;whiteSpace=wrap;" vertex="1" parent="1">
          <mxGeometry x="76" y="1729" width="205" height="205" as="geometry" />
        </mxCell>
        <mxCell id="13" value="Sign Up Complete" style="rounded=1;arcSize=20;strokeWidth=2" vertex="1" parent="1">
          <mxGeometry x="101" y="2006" width="157" height="54" as="geometry" />
        </mxCell>
        <mxCell id="14" value="End" style="rounded=1;arcSize=20;strokeWidth=2" vertex="1" parent="1">
          <mxGeometry x="151" y="2110" width="56" height="54" as="geometry" />
        </mxCell>
        <mxCell id="15" value="" style="curved=1;startArrow=none;endArrow=block;exitX=0.51;exitY=1;entryX=0.5;entryY=0;" edge="1" parent="1" source="2" target="3">
          <mxGeometry relative="1" as="geometry">
            <Array as="points" />
          </mxGeometry>
        </mxCell>
        <mxCell id="16" value="" style="curved=1;startArrow=none;endArrow=block;exitX=0.28;exitY=1;entryX=0.5;entryY=0;" edge="1" parent="1" source="3" target="4">
          <mxGeometry relative="1" as="geometry">
            <Array as="points">
              <mxPoint x="106" y="191" />
            </Array>
          </mxGeometry>
        </mxCell>
        <mxCell id="17" value="" style="curved=1;startArrow=none;endArrow=block;exitX=0.5;exitY=1;entryX=0.23;entryY=0;" edge="1" parent="1" source="4" target="5">
          <mxGeometry relative="1" as="geometry">
            <Array as="points">
              <mxPoint x="106" y="295" />
            </Array>
          </mxGeometry>
        </mxCell>
        <mxCell id="18" value="No" style="curved=1;startArrow=none;endArrow=block;exitX=0.77;exitY=0;entryX=0.72;entryY=1;" edge="1" parent="1" source="5" target="3">
          <mxGeometry relative="1" as="geometry">
            <Array as="points">
              <mxPoint x="251" y="295" />
              <mxPoint x="251" y="191" />
            </Array>
          </mxGeometry>
        </mxCell>
        <mxCell id="19" value="Yes" style="curved=1;startArrow=none;endArrow=block;exitX=0.5;exitY=1;entryX=0.5;entryY=-0.01;" edge="1" parent="1" source="5" target="6">
          <mxGeometry relative="1" as="geometry">
            <Array as="points" />
          </mxGeometry>
        </mxCell>
        <mxCell id="20" value="" style="curved=1;startArrow=none;endArrow=block;exitX=0.5;exitY=0.99;entryX=0.5;entryY=-0.01;" edge="1" parent="1" source="6" target="7">
          <mxGeometry relative="1" as="geometry">
            <Array as="points" />
          </mxGeometry>
        </mxCell>
        <mxCell id="21" value="" style="curved=1;startArrow=none;endArrow=block;exitX=0.47;exitY=0.99;entryX=0.43;entryY=0;" edge="1" parent="1" source="7" target="8">
          <mxGeometry relative="1" as="geometry">
            <Array as="points">
              <mxPoint x="163" y="807" />
            </Array>
          </mxGeometry>
        </mxCell>
        <mxCell id="22" value="No" style="curved=1;startArrow=none;endArrow=block;exitX=0.57;exitY=0;entryX=0.53;entryY=0.99;" edge="1" parent="1" source="8" target="7">
          <mxGeometry relative="1" as="geometry">
            <Array as="points">
              <mxPoint x="195" y="807" />
            </Array>
          </mxGeometry>
        </mxCell>
        <mxCell id="23" value="Yes" style="curved=1;startArrow=none;endArrow=block;exitX=0.5;exitY=1;entryX=0.5;entryY=0;" edge="1" parent="1" source="8" target="9">
          <mxGeometry relative="1" as="geometry">
            <Array as="points" />
          </mxGeometry>
        </mxCell>
        <mxCell id="24" value="" style="curved=1;startArrow=none;endArrow=block;exitX=0.46;exitY=1;entryX=0.44;entryY=0;" edge="1" parent="1" source="9" target="10">
          <mxGeometry relative="1" as="geometry">
            <Array as="points">
              <mxPoint x="163" y="1167" />
            </Array>
          </mxGeometry>
        </mxCell>
        <mxCell id="25" value="No" style="curved=1;startArrow=none;endArrow=block;exitX=0.56;exitY=0;entryX=0.54;entryY=1;" edge="1" parent="1" source="10" target="9">
          <mxGeometry relative="1" as="geometry">
            <Array as="points">
              <mxPoint x="195" y="1167" />
            </Array>
          </mxGeometry>
        </mxCell>
        <mxCell id="26" value="Yes" style="curved=1;startArrow=none;endArrow=block;exitX=0.5;exitY=1;entryX=0.5;entryY=0;" edge="1" parent="1" source="10" target="11">
          <mxGeometry relative="1" as="geometry">
            <Array as="points" />
          </mxGeometry>
        </mxCell>
        <mxCell id="27" value="Yes" style="curved=1;startArrow=none;endArrow=block;exitX=0.41;exitY=1;entryX=0.42;entryY=0;" edge="1" parent="1" source="11" target="12">
          <mxGeometry relative="1" as="geometry">
            <Array as="points">
              <mxPoint x="156" y="1692" />
            </Array>
          </mxGeometry>
        </mxCell>
        <mxCell id="28" value="No" style="curved=1;startArrow=none;endArrow=block;exitX=0.58;exitY=0;entryX=0.59;entryY=1;" edge="1" parent="1" source="12" target="11">
          <mxGeometry relative="1" as="geometry">
            <Array as="points">
              <mxPoint x="201" y="1692" />
            </Array>
          </mxGeometry>
        </mxCell>
        <mxCell id="29" value="Yes" style="curved=1;startArrow=none;endArrow=block;exitX=0.5;exitY=1;entryX=0.5;entryY=0.01;" edge="1" parent="1" source="12" target="13">
          <mxGeometry relative="1" as="geometry">
            <Array as="points" />
          </mxGeometry>
        </mxCell>
        <mxCell id="30" value="" style="curved=1;startArrow=none;endArrow=block;exitX=0.5;exitY=1.01;entryX=0.5;entryY=0.01;" edge="1" parent="1" source="13" target="14">
          <mxGeometry relative="1" as="geometry">
            <Array as="points" />
          </mxGeometry>
        </mxCell>
      </root>
    </mxGraphModel>
  </diagram>
</mxfile>
